<?xml version="1.0" encoding="UTF-8"?>
<svg xmlns="http://www.w3.org/2000/svg" version="1.1" viewBox="0 0 1080 1080">
  <defs>
    <style>
      .cls-1 {
        fill: #50a2fa;
      }

      .cls-2 {
        fill: #f69240;
      }

      .cls-3 {
        fill: #eb5e1d;
      }

      .cls-4 {
        fill: #65e9dd;
      }

      .cls-5 {
        fill: #f8d49a;
      }

      .cls-6 {
        fill: #f2f2f2;
      }

      .cls-7 {
        fill: #83faaf;
      }

      .cls-8 {
        fill: #6f32d8;
      }
    </style>
  </defs>
  <!-- Generator: Adobe Illustrator 28.6.0, SVG Export Plug-In . SVG Version: 1.2.0 Build 709)  -->
  <g>
    <g id="Layer_1">
      <g>
        <g>
          <path class="cls-2" d="M786,386.7c-35.7,42.3-90.6-11.8-48-44.5,21-13.9,69.9-97.5,99.5-72.7,62.5,52.4-30.6,95.7-51.5,117.2Z"/>
          <path class="cls-5" d="M690,188.4c-17.8,29.8-36.7,73-49.9,105.5-14.6,20.7,31.4,46.5,45.6,30.8,7.3-12.5,30.7-39.4,38.2-52.1,8.2-15.3,58-74.9-34-84.2h0Z"/>
          <path class="cls-5" d="M677.4,191.5c-9,25.5-28.3,72-37.3,97.3-5.2,34.8-62,13.4-84.9,11.3,55-47.1,63.9-94.6,14.4-146.7,26.5,5.3,128.5-4.2,107.9,38.1h0Z"/>
          <path class="cls-1" d="M209.4,322.9c20.3-11.8,51.5,30.2,61.9,40.1,30.8,30.8.6-6.5,21.2,34.7,29,20.1,27.4,51.2-13.5,49.7-17.5-7.6-33.7-16.6-51.4-23.2-52.6-19.6-56.4-54.9-18.1-101.4h0Z"/>
          <path class="cls-4" d="M395.2,331.3c-16.3,68.8-99.4-16.6-124.9-56.2-15.1-23.6,25.2-39.1,38.9-44.3,34.1-12.8,35.2,38.9,86,100.5h0Z"/>
          <path class="cls-8" d="M287.9,470.3"/>
          <path class="cls-8" d="M125,510.9c.4.5,58.8-106.4,59-107.1,2.5-6.8-51.8,19.2-46.6,15.7.3,0,.6-.6.8-1.1.1-.2.4-.4.6-.5,7.1-1.2,14.2,3,20.5,5,0,0,.1,0,.1,0,6.1,3.3-2.3-.6,3.9,2.5.4.2,18.4-49.1,18.1-17.1l-26.2,14.2c9.4-13.4-54.2,11.6-1.2-4.2,112-33.3,137.8,64.9,138.5,64.7"/>
          <path class="cls-8" d="M272,490c-2.1,1.4-1.8-1.2-3.8-.1-.1,0-.3.1-.4.1-29.3,0-67.6,6.7-96.5,3.2-.6,0-.9-.8-.6-1.3l3.5-5.8c.2-.3.2-.6,0-.9"/>
          <path class="cls-7" d="M395.2,188.4c-7.9-19.1,28.3-25.9,40.8-28.8,128.5-43.4-28.9,64,86.2,127.5-17.1,4.6-72.2,37.9-79.5,12.9-12.3-34.2-47.8-79.2-47.5-111.6h0Z"/>
          <path class="cls-7" d="M346.9,246.2c-4.5-8.9-34.9-34.6-21.2-42.2,13.9-7.5,52.7-18.2,72.7-8.3,9.4,30.5,73.3,158.4-7.9,123l-43.5-72.5Z"/>
          <path class="cls-5" d="M658.4,319s0,0,0,0h0,0s0,0,0,0Z"/>
          <path class="cls-4" d="M295.8,307.6c-21.7-26.2-50.4-53.2-73.8-.6-13.4,30,73.9,98.4,115.2,90.7,42.9-8-15.8-73.2-41.4-90.1h0Z"/>
          <path class="cls-5" d="M578.5,159.6c-.1-.2-.3-.3-.4-.5,0,.2.2.4.3.5h.1q0,0,0,0Z"/>
          <path class="cls-2" d="M814.4,261.6c-16.5,37.9-58,66.1-85.6,98-72.4,6.1-3.4-86,8.8-110.3,25.1-50,51.2,4.1,63.4-1.3,2.9-1.3,10.6,13,13.4,13.5h0Z"/>
          <path class="cls-8" d="M861.1,494c-49.3,11.5-93-14.1-39.7-53.4,62.4-46,99.7-44.6,97.2,21.3,8.5,36.5-36.4,31.7-57.5,32.1h0Z"/>
          <path class="cls-3" d="M763.5,417.4c11.4-31.1,69.9-66.9,97.2-83.9,15.2,11.7,53,60,25.5,68.6-27.5,8.8-101.7,71.5-122.7,15.3h0Z"/>
        </g>
        <g>
          <path class="cls-6" d="M948.1,563.7c-37.1-.3-74.1-.8-111.2-.7-11,0-21.6-.3-24.5-13.2-3.1-13.8,5.3-20.9,17.1-25.2,26.2-3,52.5-2.3,78.8-1.5-26.3-.8-52.6-1.4-78.8,1.5,37.7.1,75.4.3,113.2.4.5-.4,1-.8,1.5-1.2,17.2-1.8,19-14.1,18.1-27.4C912.6-6.6,169.9-6.2,118,493.7c-1.2,13.5,0,25.4,15.3,30.3,31.3.2,62.6.6,93.9.6,14.3,0,28.5,1.8,29.1,19.4.7,18.1-13.4,19.3-27.5,19.1-31.5.1-63.2-1.5-94.7.1-40.8,8.2,10,127.3,19.9,153.1,20.6,43.3,48.2,83.2,81.3,117.8.4,0,.7.2.6.7,51,50.5,112.7,88.3,181.5,109h0c14.1,4.2,28.4,7.5,42.9,10,.3-.1.5,0,.6.2,55.1,9.2,111.9,10.1,166.5-1.5h0c2.4-.1,4.8-.7,7.2-.6,63.4-16.3,122.1-43.2,172.7-85.2,9.9-8,20.3-17.1,29-25.6,3.5-3.3,6.8-6.7,10.2-10.1.5-.5,1-1,1.5-1.5h0c12.6-12.9,23.9-27,34.7-41.5,0-.3.1-.5.4-.5,41.7-55.7,67.3-121,77.5-189.5,2.1-13.4,3.1-27-12.6-34.2h0ZM910.8,462c8.4,36.2-30.4,25.5-52.1,25.3v.2c-16.3,0-62.8,7.2-55.3-24,3.2-13.4,23.1-18.8,33.7-24.1,15.1-7.6,30.2-15.3,45.5-22.7,25.4-12.4,27.1,28.4,28.2,45.3ZM862.1,342.7c15,9.7,19.3,26.4,24.8,41.7,3.2,9.1-6.5,12.5-12.8,15.9-22.9,12.4-45.6,25.4-69.2,36.1-18.1,8.2-24.9-4.8-28.6-17.9,0-9.5,4.3-14.6,9.8-18.9,22.5-18.2,45.1-36.4,67.8-54.3,2.2-1.8,6.8-3.6,8.4-2.6h0ZM849.9,316.7c-.2-2.7-1.5-5.2-4.3-6.8,2.8,1.6,4.1,4.1,4.3,6.8ZM826.4,288.8s0,0,0,0c-.2-.8-.5-1.5-.8-2.1.3.6.6,1.3.8,2.1.5.5,1,1,1.4,1.5,1.6,1.3,3.1,2.8,4.4,4.4h0c.5.4,1,.9,1.5,1.5,0,0,0,0,0,0h0c3.4,4.3,6.8,8.7,10.2,13h0c2.7,6,7.2,11.9,1.5,18.5h0c-.5.5-1,1-1.5,1.5-.5.5-1,1-1.4,1.4-.5.5-1,1-1.5,1.5,0,0,0,0,0,0-2.9,2.4-5.8,4.9-8.7,7.3h0c-3.1,3.1-6.8,5.7-10.1,8.6-2.4,2-4.8,4-7.2,5.9-.5.5-1,1-1.5,1.4h0c-2.4,1.9-4.9,3.8-7.2,5.8h0c-.5.4-1.1.9-1.7,1.4h0c-2.5,1.8-4.9,3.8-7.3,5.9h0c-1.1.8-2.1,1.7-3.2,2.6h.2c-2.1,1.3-4,2.9-5.7,4.6,0,0,0,0,0,0-2.4,2-4.7,3.9-7.1,5.9-.5.5-1.1,1-1.6,1.5h0c0,0,0,0,0,0-4.3,2.9-8.7,5.8-13,8.8,0,0,0,0,0,0h-11.4s0,0,0,0c-3.4-2.4-6.8-4.8-10.2-7.1-.5-.5-1-1-1.5-1.5h0c-11.6-20.8,7.7-29.7,16.4-42.7,1.2-2.1,2.5-4.2,3.8-6.1-1.3,2-2.5,4-3.7,6,10.9-11.8,21.8-23.5,32.8-35.3-4.9,3.3-9.4,7-13.6,10.9,4.2-4,8.8-7.6,13.6-10.9h0c2.3-2.5,4.8-4.9,7.2-7.5,7.7-5.7,13.4-17.7,26-8.5h0ZM747.8,330.3c.9.1,1.7.2,2.3.1-.7,0-1.5,0-2.3-.1ZM783.2,295.3c1.3-1.8,2.3-3.9,2.8-6.5-.3,2.8-1.4,4.9-2.8,6.5ZM814.4,283.6c-4.1,1.2-8.3,4-11,7.2,2.7-3.2,6.9-6,11-7.2ZM803.7,266.4c.3,1.7-.6,3.7-3.4,6.2,2.7-2.4,3.6-4.5,3.4-6.2ZM752.5,238.2c-.5.5-1,1-1.4,1.5.4-.6.9-1.1,1.4-1.5ZM748.2,248.1c3.5-4.1,7.1-8.2,10.6-12.4,4.1.3,8.3.7,12.4,1,1.9,1.5,3.8,2.9,5.7,4.3h0c.5.3,1.1.8,1.6,1.3,3.8.6,6.3,1.7,8.3,3.3-2.3-1.6-5.1-2.7-8.3-3.3h0c4.9,4.3,9.8,8.6,14.7,12.9-.2-.9-.5-1.7-.8-2.5.7,1.2,1.4,2.5,2.2,3.9h0c1.3,1.6,3.1,2.9,4.7,4.3-.7-.4-1.3-.9-2.1-1.3,1,4.3,2,8.6,3,12.9-1.4,1.9-2.9,3.9-4.3,5.8h0c-.5.5-1,1-1.4,1.5-.5.5-1,1-1.4,1.5h0c-2.4,2.4-4.7,4.8-7.1,7.3h-.1c-3.9,4.4-7.9,8.7-11.8,13,.7-.3,1.5-.6,2.1-.9-1.2.8-2.3,1.5-3.4,2.4-5.5,6-11.1,12.1-16.6,18.1-.9,1-1.9,2-2.8,3h-.1c-1.8,2.1-3.7,4.1-5.5,6h0c-3.3,4-6.5,7.9-9.8,11.9-.5.6-1,1.1-1.4,1.6-2.5,2.3-4.9,4.7-7.4,7h0c-8.6,3.6-16.7,2.2-24.3-2.9h0c-.5-.4-1-.9-1.6-1.4h0c-12.5-14.6-.8-25.7,5.6-37.5.5-1.7,1-3.3,1.6-4.8-.6,1.5-1.1,3.1-1.6,4.7,5.3-8.2,10.7-16.4,16-24.6h0c-2.8,2.4-5.3,5-7.5,7.8,2.2-2.8,4.7-5.4,7.5-7.7,1-1.5,2-2.9,2.9-4.3h0c1.1-1.8,2.2-3.7,3.3-5.5h0c1.3-2,2.7-4.1,4-6.1.6-.9,1.2-1.9,1.8-2.8h0c.9-1.4,1.8-2.9,2.8-4.4,1-1.4,2-2.9,2.9-4.3h0c1-1.4,2-2.9,2.9-4.4h0c1-1.4,1.9-2.9,2.9-4.4h0ZM737,369.6c0-.8.3-1.5.5-2.2-.2.7-.3,1.5-.5,2.2ZM734.5,349.5c-.2.2-.5.4-.8.6.3-.2.6-.4.8-.6ZM740.3,211.7c-2.3-1.6-5-2.9-7.5-4.1,2.4,1.2,5.2,2.5,7.5,4.1ZM732.8,207.6c-3.9-2-7.6-4.7-11.4-7.4,4,2.7,7.8,5.5,11.4,7.4ZM707,192.5c-3.9-1.1-8.1-1.2-12.7.3,4.2-1.8,8.5-1.6,12.7-.3ZM673.1,230.1c2.1-4.9,4.1-9.8,6.2-14.7-2.2,1.2-3.7,2.6-4.7,4.3,1-1.7,2.4-3.2,4.7-4.3.6-2.2,1.7-4.2,2.5-6.4h0c1.9-3.8,3.9-7.7,5.8-11.6,1.4-1.4,2.9-2.5,4.3-3.4,16.6-3,52.8,20.6,50.5,33.6,1.5-2.2,2.4-4.2,2.8-6-.4,1.8-1.3,3.8-2.8,6-1.5,2.4-2.9,4.8-4.3,7.2-1.2,1.7-2.4,3.4-3.6,5.1-.9,1.5-1.9,3-2.8,4.5h.4c0,0-.4,0-.4,0-.4.6-.8,1.2-1.1,1.8h0c-1,1.4-1.9,2.8-2.9,4.3,0,.7,0,1.4,0,2.1,0-.6,0-1.3,0-2-2.1,3.1-4.2,6.3-6.2,9.4,2.2-.2,3.6-.9,4.5-1.9-.9,1-2.3,1.7-4.5,1.9-.8,1.2-1.5,2.5-2.3,3.7-.9,1.5-1.8,2.9-2.7,4.4-.5,1.9-1,3.8-1.7,5.6.6-1.7,1.1-3.5,1.5-5.4-6.7,8.6-12.2,17.9-17.6,27.3,0,0,0,0,0,0,3.2-2.6,6-5.4,8.4-8.4-2.4,3-5.2,5.8-8.4,8.4-.9,1.5-1.9,3-2.8,4.5h0c-2,3.4-3.9,6.8-5.9,10.1h0c-1.5,2.4-2.9,4.8-4.3,7.3h0c-2.3,2.9-4.9,5-7.6,6.3,1.6-.8,3.2-2,4.8-3.4-8.5,5.2-16.5,1.5-24.6-1.5,2.7,2.7,5.4,4.6,8.2,5.7-2.8-1-5.6-2.9-8.2-5.7,0,0,0,0,0,0-10.5-6.6-16.7-14.7-9-27.4,1.1-3.4,2.3-6.7,3.4-10,0,0,0-.1,0-.2,5-12.4,10-24.8,15-37.1-.3-.8-.5-1.6-.5-2.3,0,.7.3,1.4.5,2.1,1.8-4.5,3.5-9,5.3-13.5-1.4,1.1-2.6,2.2-3.6,3.5,1-1.2,2.2-2.4,3.6-3.5,0-1,0-2.1,0-3.1,0,.9,0,1.7.2,2.6h0ZM654.1,275.1c1.4-6.1,3.1-12.1,5.7-17.8-2.5,5.7-4.2,11.7-5.7,17.8ZM667.7,180.2c9.9,4.4.8,17.2-.9,24.3,0,1.1.1,2.1,0,3.2,0-.9,0-1.8-.2-2.7-2,5.1-3.9,10.2-5.8,15.3,0,0,0,0,0,0,1.8-1.4,3.1-3,4.1-4.7-.9,1.7-2.3,3.3-4.1,4.7-1,2.4-1.9,4.9-2.9,7.3h0c-1,2.4-1.9,4.9-2.9,7.3h0c-.6,1.4-1.2,2.8-1.8,4.2h0c-.2.9-1.4,1.8-1.2,2.8-1,2.5-2,5-2.9,7.5h0c-2,4.8-4,9.6-5.9,14.4,0,0,0,0,0,0-1.2,2.8-2.3,5.5-3.5,8.3v.2c-.8,2.5-1.7,4.9-2.6,7.4h.1c-1.9,4.8-3.8,9.8-5.7,14.7-1.8,2.5-4,4.6-6.4,6.1.8-.5,1.5-1.1,2.2-1.8-5.3,0-10.6,0-15.9,0,1.9,1.7,3.8,2.8,5.8,3.3-2-.4-3.9-1.4-5.8-3.3-13.5-2.9-27.1-5.7-40.6-8.5h0c55.2-47,56.5-78.8,7.3-130.4h0c31,1.2,60.8,7.9,89.1,20.5h0ZM538.9,188.4c44.3,1,43.8,63.2.3,67.4-41.8-4-43.9-68.3-.3-67.4h0ZM435.5,171.6c18.3-4.1,31.6-9.7,50.3-7.6-45.8,46.6-31.9,88,22.7,125.4-17.1,4.6-57.6,22.8-64.9-2.2-10.5-25.9-21.1-51.8-31.7-77.7,0,4.6-2.4,7-5.3,9.1,6-4.8,6.9-8.4.9-19.2v-.4c-12.2-20.2,13.5-25.1,27.9-27.4h0ZM343.3,213c23.5-15.2,13.4-20.7,45-15.4h.2-.2c.8,1.4,1.6,2.8,2.4,4.2,3.2,7.2,6.4,14.3,9.5,21.5,10,23.4,17.7,45.4,27.7,68.8.6,11.8,2.1,15.8-5.5,23.6-10.7,5.9-17.3,4.7-32.1-1.2l-43.5-72.5c-4.5-8.9-17.3-21.5-3.6-29.1h0ZM388.8,197.6c.2,0,.2,0,0,0h0ZM382.9,337.2c0,1-.6,1.9-2.1,2.6,1.4-.8,2-1.6,2.1-2.6ZM306.1,240.3c10-5.6,20.5-1.6,23,4.8,16.9,27.6,39.9,65.1,50.7,82.7,0,1.5.5,3,1.3,4.5-.3-.5-.7-1-1-1.5-.6,3.4-1.2,6.7-1.8,10-14.7,20.1-30,11.4-41.9-4.3h0c-1.6-2-3.3-4-5-6-15.3-17.2-30.6-34.4-45.9-51.6h0c-14.1-23.9,11-27.6,20.6-38.6h0ZM233,323.4c1.6-5.3,3.2-10.5,4.9-15.8,9.1-8.6,13.4-24.9,31.2-20.2,9.6,10.3,19.2,20.6,28.9,30.8l-.2.2c1,1,2,2,2.9,3h-.4c.3.5,2.2,1.9,1.3,1.6,5.4,4.3,9.6,9.8,14.5,14.6,7.4,10,25.1,22.1,22.9,36.4-2.1,13.1-18.9,20.9-30.1,15.1-1.2-.5-2.4-.9-3.6-1.2.8.2,1.7.4,2.5.5-5.5-4.3-10.9-8.5-16.4-12.8-3.8-3-7.6-6-11.4-9h0c-2.5-2.1-5-4.2-7.5-6.4-.4-.2-.8-.5-1.2-.8-2.9-2.5-5.9-5.1-8.8-7.6-1-.8-2.1-1.7-3.1-2.5-2.4-1.9-4.8-3.8-7.2-5.7h-.1c-2.9-2.5-5.7-4.8-8.6-7.2-3.4-3.6-8.2-8.7-10.9-13.8.1.2.2.4.3.5h0ZM196.7,368.8c1.6-2,3.3-4,5-6.1,2.8-4.4,5.6-8.8,8.4-13.2,1.1-1.4,2.1-2.7,3.2-4.1,1.3-.7,2.7-1.5,4-2.2,2.7.2,5.6.7,8.5,1.4,8.2,6.2,16.3,12.3,24.5,18.5h0c3,2.3,5.9,4.8,9,7.1,3.4,2.8,6.8,5.6,10.2,8.4,0,0,0,0,0,0,1.9,2,4.3,3.3,6.8,4.4-1.2-.5-2.4-1-3.6-1.6,6.6,5.5,13.2,10.9,19.8,16.4,0,0,0,0,0,0,3,2.9,5.9,5.7,8.9,8.6,0,0,0,0,0,0,.5.7,1,1.4,1.4,2-.2.4-.1.6.2.8,4.4,11.8-1.5,23.7-13.1,28.9-3.9,0-7.8,0-11.6.1.7,1,1.3,1.7,2,2.2-.8-.6-1.6-1.4-2.4-2.5h-.5c-1.1-.4-2.3-.8-3.4-1.3-1.9-1-3.8-2-5.8-3-2.8-1.5-5.7-3-8.5-4.5h0c-3.5-1.8-6.9-3.7-10.4-5.6h0c-3.8-2-7.7-3.9-11.5-5.9,0,0,0,0,0,0-.7-.5-1.4-.9-2.1-1.4h-.6c-.7-.5-1.6-.8-2.2-1.5-2-.5-4.1-1.8-5.9-2.9-.2,0-.5,0-.7,0-9.3-4.8-18.6-9.5-27.9-14.3-.9-.6-1.7-1.4-2.8-1.5h0c-7.4-11.4,1.4-20.5,4.2-30.4-1.2,1.1-2.3,2.2-3.3,3.3h0ZM289.9,437.9c-1.4,1-2.7,2-4,2.6,1.3-.7,2.7-1.7,4-2.6ZM276,455.8c-.6-1-1.7-1.6-3.3-1.8,1.9.2,2.9.8,3.3,1.8ZM169.4,444.9c.8,4.6-.8,9.6-2.5,14.6,1.6-5,3.3-9.9,2.5-14.6h0ZM178,486h-3c-6.2-9.2-7.4-33-2.9-50.9-.7,1.5-1.5,3.1-2,4.6.5-1.6,1.3-3.1,2.1-4.7,4.5-17.5,14.6-29.3,30.8-16,30.9,18.8,60.2,23.8,74.9,43.9.8,7.5.4,15.4-5.5,19.9-24.6,10.7-63.8.4-94.4,3.2ZM878.8,646.8c-14.4,2-42.4-3.2-52.3,5.7-86.9,258.6-451.3,285.5-558.5,28.1h0c-.3-1-1.5-1.8-1.3-2.9-9-54.1-78.2-7.6-89.9-45.6-7.2-46.7,80.1-13.5,106-31.6h0c29.5-17.2,22-49.7,25.9-76.1,14.6-93.2,109.1-182.6,203.1-192.2,6.8-.7,7.6,1,7.6,7.2-.3,41.8-.2,83.6-.4,125.4,0,2.4-1.6,6.3-3.4,7-65.7,23.5-87.4,53-90.3,123.1-.1,2.4-2.1,5.9-4.2,6.8-35.6,15.7-42.2,67.7-13.3,94.2h0c9.7,6.6,21.7,9.8,33.1,12.4,16-2,33-2.9,44.8-15.4,30.3-35.8,17.4-68.8-17.3-95.9-9.6-60.5,61.1-108.3,111.6-70.8,24.2,16.2,37.1,46.3,29,74-61,35-30.8,116.2,34.9,107.8,52.1-12.2,61.8-80.7,13.4-106.8-9.4-68.5-21.8-105.5-92.5-128.7-1.7-.6-3.5-3.7-3.5-5.6-.2-43.5,0-87-.2-130.4,0-4.8,1.4-5.3,5.8-4.7,111.9,13.9,203.4,115.9,204.5,228.3-.2,16.1,7,30.2,19.1,40.5,22.5,8,46,6.5,69.5,6.4,17.5.4,46.6-5,45.9,20.2.3,16-12.3,21.3-27,19.9h0Z"/>
          <path class="cls-6" d="M387.9,197.6c-.2,0-.2,0,0,0h0Z"/>
          <path class="cls-6" d="M658.4,319h0Z"/>
          <path class="cls-6" d="M172.2,435s0,0,0,.1c.4-.7.7-1.5,1-2.2-.3.7-.7,1.4-1,2.1h0Z"/>
          <path class="cls-6" d="M388.1,197.6h-.2.2Z"/>
          <path class="cls-6" d="M388.4,197.6h-.2.2Z"/>
        </g>
      </g>
    </g>
  </g>
</svg>