<svg width="1024" height="1024" viewBox="0 0 1024 1024" fill="none" xmlns="http://www.w3.org/2000/svg">
<g filter="url(#filter0_d_1_2)">
<rect x="100" y="100" width="824" height="824" rx="184" fill="#191919"/>
<rect x="100" y="100" width="824" height="824" rx="184" fill="url(#paint0_linear_1_2)"/>
</g>
<g clip-path="url(#clip0_1_2)">
<path d="M681.467 406.396C656.904 435.517 619.049 398.261 648.395 375.766C662.88 366.18 696.558 308.628 716.945 325.705C760.043 361.783 695.862 391.585 681.467 406.396Z" fill="#F69240"/>
<path d="M615.331 269.87C603.061 290.396 590.072 320.175 580.972 342.515C570.923 356.802 602.632 374.545 612.414 363.73C617.464 355.129 633.585 336.631 638.746 327.844C644.374 317.326 678.734 276.251 615.331 269.877V269.87Z" fill="#F8D49A"/>
<path d="M606.675 271.957C600.484 289.508 587.17 321.567 580.972 338.984C577.358 362.931 538.229 348.178 522.449 346.757C560.363 314.313 566.502 281.58 532.349 245.731C550.596 249.403 620.878 242.852 606.675 271.957Z" fill="#F8D49A"/>
<path d="M284.24 362.479C298.25 354.329 319.748 383.309 326.871 390.134C348.117 411.348 327.279 385.692 341.489 414.05C361.483 427.907 360.35 449.329 332.173 448.308C320.147 443.089 308.981 436.871 296.747 432.304C260.543 418.773 257.9 394.494 284.24 362.479Z" fill="#50A2FA"/>
<path d="M412.23 368.29C401.026 415.642 343.748 356.883 326.205 329.569C315.786 313.343 343.563 302.61 352.989 299.064C376.478 290.226 377.212 325.86 412.238 368.29H412.23Z" fill="#65E9DD"/>
<path d="M226.035 491.973C226.309 492.351 266.534 418.677 266.69 418.24C268.423 413.591 231.027 431.445 234.566 429.055C234.788 429.092 234.951 428.625 235.114 428.292C235.196 428.122 235.359 427.996 235.544 427.959C240.401 427.1 245.304 430.046 249.695 431.438C249.732 431.453 249.762 431.468 249.799 431.482C254.005 433.77 248.199 431.053 252.494 433.192C252.768 433.333 265.157 399.342 264.987 421.408L246.911 431.179C253.405 421.956 209.537 439.151 246.052 428.307C323.235 405.367 340.986 473.031 341.474 472.861" fill="#6F32D8"/>
<path d="M327.36 477.569C325.901 478.509 326.101 476.717 324.739 477.487C324.65 477.539 324.546 477.569 324.442 477.569C304.234 477.569 277.857 482.151 257.981 479.752C257.552 479.7 257.337 479.219 257.552 478.857L259.973 474.896C260.092 474.704 260.092 474.46 259.958 474.267" fill="#6F32D8"/>
<path d="M412.23 269.87C406.825 256.709 431.75 252.009 440.333 250.069C528.884 220.179 420.458 294.112 499.73 337.867C487.918 341.005 449.967 363.952 444.991 346.749C436.542 323.203 412.038 292.217 412.23 269.87Z" fill="#83FAAF"/>
<path d="M378.981 309.62C375.886 303.528 354.929 285.785 364.349 280.522C373.924 275.392 400.634 267.975 414.422 274.807C420.924 295.837 464.933 383.894 408.95 359.54L378.981 309.62Z" fill="#83FAAF"/>
<path d="M593.56 359.822C593.56 359.822 593.545 359.822 593.538 359.807L593.568 359.822H593.56Z" fill="#F8D49A"/>
<path d="M343.748 351.931C328.797 333.862 309.04 315.305 292.897 351.539C283.685 372.206 343.785 419.328 372.257 414.006C401.819 408.484 361.365 363.619 343.748 351.931Z" fill="#65E9DD"/>
<path d="M538.51 250.017C538.422 249.906 538.325 249.803 538.236 249.692C538.303 249.818 538.377 249.936 538.436 250.062L538.51 250.01V250.017Z" fill="#F8D49A"/>
<path d="M701.076 320.242C689.686 346.327 661.125 365.758 642.116 387.765C592.257 391.955 639.776 328.547 648.181 311.796C665.472 277.346 683.444 314.616 691.841 310.923C693.863 310.034 699.143 319.887 701.076 320.242Z" fill="#F69240"/>
<path d="M733.251 480.322C699.313 488.235 669.182 470.581 705.882 443.556C748.868 411.904 774.557 412.822 772.854 458.197C778.711 483.372 747.787 479.997 733.251 480.322Z" fill="#6F32D8"/>
<path d="M665.99 427.589C673.817 406.167 714.138 381.54 732.962 369.815C743.448 377.876 769.455 411.119 750.542 417.078C731.622 423.14 680.504 466.354 665.997 427.596L665.99 427.589Z" fill="#EB5E1D"/>
<path d="M793.174 528.311C767.641 528.118 742.1 527.778 716.567 527.83C708.984 527.844 701.69 527.63 699.654 518.703C697.492 509.228 703.282 504.29 711.406 501.33C729.452 499.279 747.573 499.738 765.686 500.271C747.565 499.746 729.452 499.279 711.406 501.33C737.398 501.418 763.375 501.507 789.367 501.596C789.715 501.33 790.049 501.056 790.397 500.789C802.23 499.568 803.519 491.1 802.882 481.921C768.692 135.513 256.997 135.801 221.245 480.13C220.423 489.449 221.185 497.599 231.782 500.974C253.361 501.13 274.932 501.404 296.51 501.411C306.359 501.411 316.112 502.662 316.571 514.742C317.038 527.186 307.315 528.037 297.629 527.911C275.917 528.007 254.057 526.912 232.412 528C204.316 533.618 239.313 615.701 246.118 633.437C260.277 663.275 279.36 690.76 302.146 714.587C302.449 714.587 302.597 714.735 302.59 715.039C337.757 749.837 380.218 775.826 427.626 790.075H427.641C437.327 792.999 447.227 795.227 457.195 796.981C457.395 796.907 457.528 796.959 457.595 797.151C495.568 803.458 534.712 804.109 572.315 796.1L572.263 796.152C573.922 795.997 575.581 795.597 577.254 795.649C620.93 784.449 661.399 765.899 696.255 737.001C703.068 731.494 710.258 725.202 716.242 719.347C718.619 717.052 720.944 714.706 723.306 712.396C723.654 712.048 723.995 711.708 724.343 711.36L724.298 711.397C732.984 702.462 740.782 692.758 748.18 682.743C748.158 682.521 748.254 682.395 748.476 682.365C777.178 644.007 794.877 599.054 801.838 551.827C803.274 542.582 803.97 533.211 793.166 528.303L793.174 528.311ZM767.5 458.249C773.276 483.172 746.543 475.836 731.622 475.674V475.822C720.359 475.822 688.368 480.788 693.522 459.322C695.744 450.069 709.429 446.405 716.752 442.704C727.164 437.434 737.583 432.156 748.076 427.041C765.567 418.536 766.745 446.59 767.5 458.256V458.249ZM733.932 376.099C744.292 382.754 747.254 394.271 751.016 404.827C753.252 411.112 746.506 413.428 742.174 415.775C726.401 424.324 710.776 433.244 694.47 440.639C681.97 446.302 677.313 437.352 674.736 428.314C674.721 421.763 677.735 418.284 681.452 415.294C696.981 402.777 712.502 390.259 728.149 377.898C729.682 376.691 732.814 375.381 733.932 376.099ZM725.528 358.238C725.409 356.357 724.528 354.633 722.573 353.545C724.528 354.633 725.416 356.357 725.528 358.238ZM709.347 338.992C709.347 338.992 709.347 338.97 709.347 338.962C709.199 338.407 708.999 337.918 708.77 337.489C709.014 337.918 709.207 338.414 709.347 338.962C709.681 339.303 709.999 339.636 710.332 339.976C711.421 340.879 712.443 341.886 713.339 343.004L713.287 342.952C713.635 343.3 713.983 343.655 714.331 344.003C714.331 344.003 714.294 344.003 714.287 344.003C716.619 346.994 718.959 349.991 721.292 352.975C723.121 357.112 726.216 361.154 722.291 365.751L722.343 365.729C722.003 366.084 721.677 366.439 721.336 366.794C721.003 367.128 720.677 367.453 720.351 367.779C720.003 368.112 719.663 368.438 719.322 368.778C719.322 368.763 719.322 368.756 719.322 368.741C717.323 370.414 715.316 372.087 713.324 373.753H713.346C711.184 375.921 708.644 377.654 706.363 379.697C704.704 381.059 703.045 382.421 701.387 383.783C701.039 384.116 700.691 384.434 700.35 384.767L700.372 384.737C698.713 386.077 696.995 387.365 695.374 388.764L695.389 388.749C695.011 389.068 694.633 389.393 694.248 389.704L694.293 389.616C692.582 390.948 690.901 392.303 689.279 393.731L689.331 393.65C688.598 394.279 687.865 394.901 687.132 395.53L687.258 395.463C685.836 396.418 684.533 397.514 683.303 398.698C683.303 398.698 683.289 398.661 683.281 398.661C681.652 400.008 680.03 401.37 678.394 402.717C678.038 403.058 677.661 403.376 677.305 403.717L677.32 403.665C674.321 405.678 671.329 407.684 668.338 409.698C668.352 409.683 668.36 409.668 668.375 409.653H660.547C660.547 409.653 660.562 409.675 660.577 409.69C658.237 408.054 655.89 406.419 653.55 404.783C653.201 404.435 652.883 404.072 652.542 403.724L652.565 403.702C644.552 389.371 657.882 383.264 663.887 374.33C664.716 372.879 665.59 371.465 666.509 370.096C665.62 371.443 664.768 372.827 663.969 374.256C671.492 366.158 679.016 358.06 686.539 349.954C683.185 352.257 680.053 354.766 677.15 357.49C680.045 354.766 683.177 352.249 686.539 349.954H686.517C688.117 348.2 689.857 346.579 691.456 344.825C696.773 340.894 700.698 332.663 709.362 338.984L709.347 338.992ZM679.534 343.485C680.467 342.249 681.134 340.768 681.467 338.984C681.23 340.916 680.526 342.33 679.534 343.485ZM701.076 335.402C698.24 336.246 695.329 338.126 693.463 340.339C695.329 338.118 698.24 336.231 701.076 335.402ZM693.671 323.558C693.848 324.728 693.256 326.09 691.345 327.837C693.174 326.164 693.804 324.772 693.671 323.558ZM658.4 304.157C658.044 304.475 657.733 304.823 657.452 305.201C657.733 304.816 658.044 304.468 658.4 304.157ZM655.475 310.945C657.911 308.11 660.347 305.267 662.784 302.432C665.635 302.669 668.486 302.899 671.344 303.136C672.662 304.135 673.973 305.127 675.291 306.119L675.232 306.022C675.609 306.363 675.972 306.696 676.35 307.036C678.934 307.421 680.712 308.206 682.096 309.316C680.512 308.184 678.579 307.444 676.35 307.036H676.313C679.682 309.997 683.044 312.958 686.414 315.919C686.258 315.32 686.066 314.757 685.858 314.224C686.347 315.075 686.85 315.978 687.406 316.941C688.294 318.036 689.531 318.969 690.672 319.872C690.22 319.568 689.738 319.272 689.235 318.984C689.938 321.937 690.635 324.891 691.338 327.844C690.346 329.176 689.346 330.509 688.354 331.841L688.391 331.812C688.065 332.167 687.739 332.522 687.413 332.878C687.087 333.218 686.762 333.551 686.436 333.884L686.421 333.899C684.784 335.55 683.155 337.223 681.541 338.903L681.46 338.984C678.742 341.93 676.032 344.877 673.321 347.83C673.825 347.63 674.321 347.416 674.787 347.186C673.988 347.712 673.181 348.245 672.425 348.852C668.612 353.004 664.805 357.164 660.992 361.317C660.355 362.027 659.688 362.708 659.044 363.404L658.97 363.478C657.711 364.84 656.445 366.202 655.179 367.557C652.92 370.288 650.669 373.027 648.403 375.751C648.092 376.136 647.751 376.491 647.425 376.869C645.73 378.483 644.034 380.089 642.331 381.695V381.68C636.377 384.167 630.831 383.213 625.595 379.667L625.625 379.726C625.269 379.378 624.906 379.038 624.551 378.69H624.588C615.991 368.615 624.003 361.006 628.439 352.856C628.765 351.716 629.15 350.613 629.572 349.54C629.157 350.591 628.787 351.679 628.476 352.804C632.156 347.164 635.829 341.531 639.509 335.89C637.591 337.541 635.873 339.31 634.37 341.227C635.873 339.31 637.591 337.541 639.509 335.898C640.183 334.898 640.85 333.899 641.531 332.907L641.516 332.922C642.271 331.649 643.034 330.383 643.79 329.11L643.73 329.139C644.641 327.718 645.559 326.297 646.463 324.876C646.87 324.232 647.27 323.595 647.677 322.951L647.611 323.055C648.255 322.011 648.884 320.96 649.529 319.931C650.202 318.939 650.876 317.947 651.558 316.948L651.535 316.97C652.202 315.964 652.876 314.949 653.55 313.95L653.527 313.972C654.186 312.958 654.853 311.944 655.512 310.937L655.475 310.945ZM646.041 380.792C645.87 380.94 645.693 381.073 645.485 381.184C645.685 381.073 645.87 380.94 646.041 380.792ZM650.017 285.918C648.433 284.815 646.552 283.927 644.885 283.09C646.552 283.927 648.44 284.815 650.017 285.918ZM644.856 283.068C642.153 281.699 639.591 279.819 636.999 277.99C639.769 279.878 642.405 281.795 644.856 283.068ZM627.032 272.646C624.351 271.913 621.47 271.846 618.271 272.868C621.196 271.632 624.144 271.75 627.032 272.646ZM603.705 298.598C605.135 295.215 606.549 291.832 607.971 288.45C606.445 289.256 605.416 290.278 604.735 291.433C605.394 290.27 606.416 289.256 607.971 288.45C608.408 286.954 609.141 285.526 609.689 284.053L609.644 284.104C610.985 281.417 612.325 278.73 613.658 276.043C614.643 275.074 615.628 274.304 616.62 273.697C628.054 271.632 652.994 287.872 651.402 296.866C652.461 295.326 653.068 293.957 653.335 292.758C653.076 293.979 652.461 295.348 651.387 296.903C650.388 298.554 649.388 300.212 648.396 301.855C647.574 303.032 646.752 304.209 645.93 305.386C645.322 306.437 644.649 307.451 644.019 308.495L644.271 308.547H644.012C643.753 308.954 643.486 309.368 643.227 309.775L643.264 309.723C642.605 310.723 641.938 311.722 641.279 312.714C641.279 313.195 641.264 313.676 641.242 314.15C641.257 313.706 641.257 313.24 641.242 312.773C639.813 314.935 638.384 317.089 636.955 319.258C638.458 319.109 639.435 318.628 640.072 317.918C639.435 318.628 638.458 319.117 636.955 319.258C636.429 320.109 635.903 320.96 635.37 321.804C634.77 322.833 634.126 323.832 633.511 324.846C633.193 326.186 632.808 327.474 632.356 328.725C632.778 327.533 633.134 326.297 633.415 325.016C628.824 330.916 625.01 337.312 621.308 343.803C621.322 343.803 621.33 343.781 621.345 343.774C623.522 341.997 625.469 340.073 627.158 337.985C625.484 340.087 623.544 342.004 621.345 343.774C620.7 344.803 620.056 345.831 619.412 346.86L619.427 346.838C618.086 349.17 616.731 351.509 615.391 353.841C614.391 355.506 613.399 357.172 612.399 358.837C610.807 360.828 609.015 362.294 607.134 363.204C608.23 362.642 609.341 361.865 610.452 360.873C604.557 364.485 599.055 361.931 593.516 359.836C595.352 361.694 597.226 363.012 599.129 363.745C597.167 363.064 595.256 361.776 593.516 359.836C593.516 359.836 593.501 359.836 593.494 359.836C586.244 355.254 581.994 349.688 587.266 340.968C588.044 338.659 588.821 336.364 589.606 334.055C589.606 334.01 589.628 333.973 589.636 333.929C593.079 325.409 596.53 316.881 599.981 308.361C599.796 307.814 599.67 307.288 599.603 306.785C599.67 307.251 599.796 307.74 599.958 308.25C601.173 305.142 602.387 302.04 603.602 298.931C602.647 299.671 601.795 300.456 601.121 301.307C601.788 300.456 602.639 299.671 603.602 298.931C603.565 298.213 603.55 297.502 603.55 296.807C603.565 297.399 603.602 297.998 603.676 298.613L603.705 298.598ZM590.606 329.569C591.583 325.364 592.761 321.219 594.501 317.318C592.768 321.227 591.591 325.364 590.606 329.569ZM599.973 264.17C606.764 267.235 600.506 276.036 599.381 280.944C599.433 281.691 599.455 282.424 599.433 283.142C599.433 282.528 599.381 281.906 599.299 281.262C597.959 284.778 596.611 288.309 595.271 291.825C595.286 291.825 595.301 291.803 595.315 291.795C596.552 290.818 597.478 289.73 598.144 288.538C597.5 289.73 596.589 290.826 595.315 291.795C594.656 293.468 593.997 295.141 593.346 296.814L593.383 296.777C592.724 298.465 592.057 300.16 591.398 301.848L591.428 301.803C591.013 302.78 590.598 303.757 590.191 304.727L590.25 304.653C590.08 305.371 589.31 305.948 589.428 306.674C588.755 308.391 588.081 310.108 587.407 311.826L587.436 311.796C586.074 315.12 584.711 318.451 583.349 321.767C583.349 321.767 583.364 321.767 583.378 321.752C582.571 323.647 581.764 325.542 580.957 327.444L580.994 327.592C580.394 329.295 579.794 330.99 579.194 332.693L579.269 332.641C577.965 336.031 576.662 339.414 575.359 342.789C574.152 344.499 572.626 345.987 570.945 346.964C571.463 346.616 571.982 346.224 572.493 345.735C568.842 345.735 565.191 345.75 561.533 345.757C562.859 346.942 564.184 347.704 565.51 348.052C564.155 347.778 562.799 347.06 561.533 345.757C552.21 343.796 542.887 341.856 533.564 339.902C571.582 307.495 572.478 285.666 538.607 250.062C559.948 250.883 580.468 255.539 599.973 264.163V264.17ZM511.245 269.877C541.784 270.544 541.421 313.395 511.437 316.274C482.617 313.536 481.18 269.219 511.245 269.877ZM440.007 258.263C452.618 255.406 461.816 251.579 474.634 253.037C443.058 285.104 452.641 313.624 490.281 339.399C478.477 342.537 450.56 355.084 445.583 337.881C438.312 320.05 431.047 302.21 423.768 284.386C423.82 287.546 422.131 289.234 420.125 290.67C424.227 287.361 424.908 284.889 420.754 277.457L420.828 277.161C412.327 263.252 430.084 259.855 440 258.278L440.007 258.263ZM376.493 286.777C392.659 276.31 385.735 272.505 407.521 276.177C408.069 277.146 408.61 278.109 409.158 279.086C411.349 284.023 413.549 288.953 415.741 293.89C422.627 310.034 427.959 325.135 434.846 341.279C435.283 349.436 436.283 352.153 431.069 357.534C423.723 361.583 419.14 360.791 408.965 356.727L378.996 306.807C375.908 300.715 367.081 292.032 376.501 286.769L376.493 286.777ZM407.854 276.154C408.002 276.154 407.973 276.154 407.854 276.154ZM403.752 372.309C403.707 372.983 403.307 373.59 402.278 374.13C403.241 373.612 403.67 372.99 403.752 372.309ZM350.849 305.593C357.729 301.699 365.008 304.453 366.711 308.909C378.345 327.896 394.207 353.767 401.619 365.869C401.56 366.935 401.989 367.971 402.485 368.949C402.263 368.601 402.034 368.238 401.812 367.89C401.397 370.2 400.975 372.494 400.568 374.804C390.415 388.661 379.878 382.665 371.695 371.828V371.843C370.592 370.422 369.421 369.06 368.281 367.675C357.736 355.839 347.184 344.003 336.639 332.167V332.152C326.894 315.69 344.251 313.188 350.857 305.593H350.849ZM300.465 362.79C301.59 359.17 302.701 355.543 303.827 351.923C310.129 345.994 313.046 334.802 325.294 338.022C331.922 345.099 338.549 352.183 345.177 359.259L345.066 359.429C345.732 360.118 346.406 360.806 347.088 361.502L346.821 361.546C347.021 361.82 348.354 362.834 347.747 362.634C351.434 365.581 354.352 369.407 357.714 372.709C362.838 379.586 375.02 387.965 373.487 397.743C372.021 406.744 360.461 412.155 352.753 408.165C351.953 407.818 351.101 407.551 350.235 407.322C350.805 407.447 351.375 407.566 351.938 407.699C348.184 404.753 344.429 401.807 340.675 398.861C338.083 396.759 335.402 394.753 332.803 392.665L332.833 392.702C331.115 391.222 329.404 389.749 327.686 388.268C327.412 388.098 327.138 387.92 326.864 387.75C324.85 386.011 322.836 384.264 320.822 382.524C320.096 381.962 319.392 381.384 318.674 380.822C317.023 379.519 315.364 378.216 313.713 376.913L313.616 376.839C311.647 375.211 309.677 373.582 307.707 371.954C305.367 369.444 302.042 365.936 300.228 362.427C300.302 362.553 300.376 362.671 300.465 362.783V362.79ZM275.435 394.086C276.509 392.71 277.687 391.318 278.886 389.897C280.819 386.877 282.752 383.849 284.684 380.829C285.41 379.889 286.143 378.971 286.876 378.031C287.795 377.52 288.713 377.01 289.631 376.499C291.49 376.669 293.489 376.965 295.503 377.439C301.131 381.68 306.759 385.914 312.387 390.156H312.409C314.505 391.747 316.497 393.472 318.585 395.064C320.94 396.996 323.295 398.927 325.65 400.859C326.99 402.207 328.619 403.117 330.322 403.902C329.478 403.554 328.649 403.184 327.856 402.769C332.396 406.53 336.935 410.29 341.474 414.043C341.474 414.043 341.474 414.021 341.474 414.013C343.511 415.975 345.555 417.944 347.584 419.905C347.584 419.891 347.584 419.868 347.584 419.854C347.91 420.312 348.235 420.786 348.561 421.245C348.428 421.489 348.487 421.667 348.732 421.793C351.79 429.935 347.695 438.13 339.712 441.69C337.039 441.72 334.366 441.742 331.692 441.764C332.144 442.445 332.603 442.926 333.055 443.289C332.514 442.904 331.974 442.341 331.426 441.557L331.092 441.631C330.308 441.313 329.53 440.987 328.745 440.683C327.434 439.973 326.116 439.277 324.783 438.589C322.828 437.552 320.873 436.523 318.918 435.487L318.933 435.546C316.549 434.251 314.172 432.955 311.787 431.66V431.682C309.144 430.32 306.493 428.958 303.842 427.589C303.842 427.611 303.856 427.626 303.856 427.648C303.39 427.33 302.864 427.048 302.435 426.664H302.027C301.524 426.316 300.894 426.101 300.502 425.627C299.102 425.302 297.68 424.398 296.444 423.636C296.281 423.621 296.118 423.599 295.955 423.584C289.557 420.305 283.152 417.033 276.754 413.754C276.154 413.325 275.591 412.777 274.813 412.747C269.719 404.931 275.761 398.646 277.709 391.807C276.887 392.547 276.124 393.302 275.435 394.064V394.086ZM339.705 441.705C338.764 442.423 337.853 443.082 336.935 443.511C337.861 443.059 338.779 442.364 339.705 441.705ZM330.122 454.022C329.678 453.341 328.93 452.927 327.849 452.801C329.189 452.919 329.811 453.371 330.122 454.022ZM256.656 446.524C257.204 449.729 256.078 453.149 254.938 456.568C256.071 453.156 257.204 449.721 256.656 446.524ZM262.58 474.808H260.521C256.212 468.442 255.404 452.075 258.559 439.773C258.048 440.831 257.537 441.897 257.159 442.934C257.53 441.86 258.056 440.765 258.589 439.677C261.706 427.626 268.637 419.528 279.819 428.662C301.079 441.623 321.318 445.021 331.403 458.878C331.929 464.074 331.648 469.471 327.597 472.594C310.669 479.945 283.633 472.868 262.587 474.808H262.58ZM745.396 585.559C735.487 586.929 716.182 583.39 709.355 589.453C649.491 767.58 398.42 786.056 324.524 608.787V608.832C324.309 608.106 323.487 607.551 323.621 606.804C317.445 569.534 269.748 601.548 261.647 575.404C256.686 543.263 316.845 566.069 334.669 553.634H334.625C354.937 541.812 349.79 519.406 352.471 501.226C362.557 437.034 427.641 375.455 492.436 368.875C497.086 368.408 497.679 369.6 497.642 373.871C497.412 402.651 497.538 431.438 497.39 460.233C497.39 461.883 496.272 464.592 495.042 465.037C449.79 481.196 434.824 501.566 432.839 549.792C432.773 551.435 431.38 553.848 429.959 554.492C405.433 565.322 400.893 601.126 420.806 619.38L420.791 619.365C427.478 623.91 435.757 626.146 443.569 627.907C454.61 626.508 466.296 625.916 474.456 617.322C495.302 592.702 486.467 569.904 462.549 551.25C455.914 509.62 504.61 476.673 539.444 502.47C556.12 513.639 564.999 534.38 559.408 553.426C517.406 577.543 538.214 633.489 583.482 627.633C619.367 619.254 626.032 572.087 592.687 554.048C586.185 506.881 577.632 481.388 528.988 465.384C527.84 464.985 526.574 462.86 526.566 461.528C526.44 431.586 526.529 401.637 526.425 371.695C526.411 368.393 527.366 368.06 530.402 368.438C607.49 378.031 670.544 448.256 671.337 525.675C671.233 536.764 676.187 546.453 684.473 553.537C700.002 559.052 716.16 557.979 732.377 557.956C744.403 558.245 764.471 554.522 763.99 571.85C764.227 582.895 755.526 586.492 745.373 585.574L745.396 585.559Z" fill="#F8F8F8"/>
<path d="M258.581 439.677C258.581 439.677 258.566 439.736 258.551 439.773C258.796 439.262 259.04 438.759 259.27 438.248C259.04 438.714 258.818 439.188 258.581 439.677Z" fill="#F8F8F8"/>
</g>
<defs>
<filter id="filter0_d_1_2" x="78" y="89" width="868" height="868" filterUnits="userSpaceOnUse" color-interpolation-filters="sRGB">
<feFlood flood-opacity="0" result="BackgroundImageFix"/>
<feColorMatrix in="SourceAlpha" type="matrix" values="0 0 0 0 0 0 0 0 0 0 0 0 0 0 0 0 0 0 127 0" result="hardAlpha"/>
<feOffset dy="11"/>
<feGaussianBlur stdDeviation="11"/>
<feColorMatrix type="matrix" values="0 0 0 0 0 0 0 0 0 0 0 0 0 0 0 0 0 0 0.28 0"/>
<feBlend mode="normal" in2="BackgroundImageFix" result="effect1_dropShadow_1_2"/>
<feBlend mode="normal" in="SourceGraphic" in2="effect1_dropShadow_1_2" result="shape"/>
</filter>
<linearGradient id="paint0_linear_1_2" x1="512" y1="100" x2="512" y2="924" gradientUnits="userSpaceOnUse">
<stop stop-color="#191919" stop-opacity="0"/>
<stop offset="0.375" stop-color="#212121"/>
</linearGradient>
<clipPath id="clip0_1_2">
<rect width="582" height="580" fill="white" transform="translate(221 222)"/>
</clipPath>
</defs>
</svg>
